<svg xmlns="http://www.w3.org/2000/svg" viewBox="0 0 342 192" width="342" height="192"><defs><linearGradient id="sky" x1="0" y1="0" x2="0" y2="1"><stop offset="0" stop-color="#D9D4C6"/><stop offset="1" stop-color="#EFEAE0"/></linearGradient><filter id="g"><feTurbulence type="fractalNoise" baseFrequency=".9" numOctaves="2" stitchTiles="stitch"/><feColorMatrix values="0 0 0 0 .1 0 0 0 0 .08 0 0 0 0 .06 0 0 0 .12 0"/></filter></defs><rect width="342" height="192" fill="url(#sky)"/><polygon points="0 192 0 94 45 96 92 102 158 84 213 96 281 104 338 92 342 192" fill="#8B9880"/><polygon points="0 192 0 110 68 109 138 106 188 111 244 105 298 99 342 192" fill="#6E7B64"/><polygon points="0 192 0 125 60 106 109 117 158 120 213 132 254 127 313 131 342 192" fill="#55614B"/><path d="M-10 192 L352 100 L352 130 L-10 192 Z" fill="#CBBFA8" opacity=".9"/><g transform="translate(120 168) scale(1.10,1.10)"><ellipse cx="0" cy="0" rx="7" ry="2" fill="#1E1B19" opacity=".25"/><path d="M-3 0 L-2 -16 L2 -16 L3 0 Z" fill="#1E1B19"/><path d="M-5 -16 L-4 -32 L4 -32 L5 -16 Z" fill="#1E1B19"/><path d="M-2 -31 L0 -22 L2 -31 Z" fill="#E9E3D6"/><rect x="-9" y="-31" width="5" height="12" rx="2" fill="#4E4A3C"/><circle cx="0" cy="-36" r="4" fill="#1E1B19"/><path d="M7 -20 L9 2" stroke="#1E1B19" stroke-width="1.2"/></g><rect x="98" y="118" width="22" height="34" rx="4" fill="#4E4A3C"/><circle cx="100" cy="150" r="3" fill="#A32332"/><rect width="342" height="192" filter="url(#g)" opacity=".8"/><rect x="1" y="1" width="340" height="190" fill="none" stroke="#1E1B19" stroke-opacity=".25"/><text x="330" y="182" text-anchor="end" font-family="Jost, Segoe UI, sans-serif" font-size="8" letter-spacing="2" fill="#1E1B19" fill-opacity=".7">PREVISTO</text></svg>